<svg id="svg" version="1.1" width="400" height="212.59748050389922" viewBox="0 0 400 212.59748050389922" xmlns="http://www.w3.org/2000/svg" xmlns:xlink="http://www.w3.org/1999/xlink" ><g id="svgg"><path id="path0" d="M35.826 44.586 C 35.479 44.774,34.931 45.065,34.609 45.233 C 34.288 45.401,34.024 45.628,34.024 45.736 C 34.024 45.844,33.822 46.135,33.575 46.383 C 32.898 47.060,32.627 48.692,32.203 54.652 C 31.991 57.634,31.729 60.135,31.621 60.208 C 31.513 60.282,31.478 60.921,31.544 61.630 C 31.622 62.471,31.583 62.944,31.431 62.995 C 31.264 63.050,31.264 63.193,31.432 63.508 C 31.576 63.776,31.589 64.019,31.468 64.141 C 31.359 64.249,31.218 65.054,31.154 65.928 C 31.090 66.802,31.000 67.804,30.955 68.155 C 30.909 68.506,30.653 71.760,30.386 75.385 C 30.118 79.011,29.827 82.028,29.739 82.091 C 29.651 82.153,29.585 82.392,29.593 82.622 C 29.605 82.990,29.546 83.947,29.221 88.570 C 29.180 89.155,28.961 91.738,28.735 94.312 C 28.509 96.885,28.254 100.066,28.170 101.382 C 28.085 102.698,27.949 103.775,27.869 103.775 C 27.788 103.775,27.700 104.325,27.673 104.997 C 27.647 105.670,27.573 106.938,27.509 107.815 C 27.445 108.692,27.360 109.888,27.320 110.473 C 27.280 111.058,27.199 111.871,27.139 112.281 C 27.079 112.690,26.968 113.880,26.892 114.925 C 26.816 115.970,26.615 118.315,26.446 120.135 C 26.276 121.956,26.117 123.947,26.094 124.561 C 26.070 125.175,25.999 125.678,25.936 125.678 C 25.705 125.678,25.759 126.625,26.007 126.932 C 26.201 127.172,26.202 127.212,26.009 127.096 C 25.833 126.990,25.773 127.124,25.812 127.534 C 25.843 127.858,25.787 128.350,25.689 128.628 C 25.570 128.962,25.601 129.245,25.780 129.466 C 25.990 129.725,25.991 129.764,25.784 129.640 C 25.590 129.524,25.511 129.714,25.492 130.344 C 25.477 130.818,25.448 131.279,25.427 131.366 C 25.407 131.454,25.315 132.626,25.225 133.971 C 25.134 135.316,25.018 136.847,24.967 137.374 C 24.877 138.301,24.839 138.804,24.536 143.115 C 24.457 144.226,24.294 145.200,24.172 145.279 C 24.026 145.373,24.055 145.550,24.256 145.798 C 24.511 146.113,24.512 146.145,24.262 145.994 C 24.014 145.844,23.985 146.002,24.093 146.917 C 24.174 147.598,24.146 147.972,24.021 147.894 C 23.909 147.825,23.817 147.912,23.817 148.088 C 23.817 148.263,23.913 148.466,24.030 148.538 C 24.147 148.610,24.236 148.831,24.227 149.029 C 24.215 149.323,24.178 149.311,24.025 148.963 C 23.877 148.627,23.837 148.716,23.833 149.389 C 23.830 149.856,23.767 150.659,23.691 151.171 C 23.585 151.896,23.615 152.066,23.825 151.936 C 24.019 151.816,24.043 151.853,23.909 152.067 C 23.004 153.517,22.781 163.872,23.643 164.405 C 23.769 164.482,23.806 164.652,23.725 164.782 C 23.645 164.912,23.681 165.019,23.805 165.019 C 23.928 165.019,24.030 165.210,24.030 165.444 C 24.030 165.678,24.125 165.869,24.242 165.869 C 24.359 165.869,24.455 166.004,24.455 166.170 C 24.455 167.610,28.409 170.049,31.226 170.347 C 33.467 170.584,75.279 170.608,75.279 170.372 C 75.279 170.280,75.494 170.200,75.758 170.194 C 76.989 170.165,77.233 170.075,77.933 169.396 C 78.345 168.996,78.682 168.560,78.682 168.426 C 78.682 168.293,78.766 168.236,78.870 168.300 C 79.419 168.639,79.887 166.867,80.075 163.743 C 80.156 162.398,80.319 161.176,80.438 161.028 C 80.565 160.869,80.597 160.279,80.516 159.593 C 80.425 158.815,80.456 158.426,80.609 158.426 C 80.751 158.426,80.823 157.962,80.798 157.204 C 80.776 156.531,80.808 155.837,80.870 155.662 C 80.931 155.486,80.984 155.056,80.986 154.705 C 80.989 154.354,81.111 152.627,81.258 150.867 C 81.405 149.107,81.462 147.504,81.386 147.305 C 81.256 146.968,80.068 146.943,64.359 146.943 C 45.973 146.943,46.731 146.992,47.441 145.850 C 47.540 145.691,47.614 145.018,47.605 144.354 C 47.596 143.691,47.636 143.069,47.694 142.972 C 47.752 142.875,47.865 141.604,47.945 140.146 C 48.025 138.688,48.121 137.444,48.158 137.381 C 48.195 137.319,48.295 136.071,48.380 134.609 C 48.464 133.147,48.607 131.903,48.697 131.845 C 48.787 131.786,48.863 131.212,48.866 130.569 C 48.870 129.926,48.928 129.016,48.995 128.549 C 49.062 128.081,49.161 127.028,49.214 126.209 C 49.267 125.391,49.406 123.668,49.523 122.382 C 49.640 121.095,49.787 119.277,49.849 118.341 C 50.172 113.442,50.256 112.594,50.426 112.529 C 50.528 112.490,50.610 112.298,50.608 112.103 C 50.605 111.797,50.577 111.792,50.399 112.068 C 50.275 112.260,50.191 112.286,50.189 112.134 C 50.188 111.994,50.277 111.824,50.389 111.755 C 50.501 111.686,50.553 111.250,50.504 110.785 C 50.456 110.321,50.503 109.942,50.608 109.942 C 50.813 109.942,50.735 109.250,50.484 108.845 C 50.387 108.687,50.427 108.658,50.597 108.763 C 50.788 108.881,50.844 108.758,50.797 108.317 C 50.762 107.982,50.789 107.613,50.856 107.496 C 50.924 107.379,50.995 106.709,51.014 106.007 C 51.032 105.306,51.135 103.918,51.241 102.924 C 51.347 101.930,51.591 98.868,51.783 96.119 C 51.975 93.371,52.213 90.918,52.312 90.669 C 52.427 90.381,52.402 90.119,52.243 89.947 C 52.050 89.738,52.056 89.712,52.266 89.831 C 52.473 89.949,52.517 89.790,52.448 89.171 C 52.398 88.724,52.431 88.214,52.521 88.038 C 52.611 87.863,52.752 86.715,52.834 85.486 C 53.001 83.003,53.054 82.303,53.364 78.469 C 53.483 77.007,53.635 74.997,53.702 74.003 C 53.818 72.296,54.117 69.352,54.318 67.943 C 54.368 67.592,54.463 66.491,54.529 65.497 C 54.596 64.503,54.740 62.780,54.850 61.669 C 54.960 60.558,55.107 58.836,55.178 57.842 C 55.249 56.847,55.395 55.029,55.503 53.801 C 55.611 52.573,55.760 50.564,55.834 49.335 C 55.908 48.107,56.038 47.007,56.122 46.890 C 56.206 46.773,56.269 46.151,56.261 45.508 L 56.247 44.338 46.353 44.291 C 37.606 44.249,36.385 44.283,35.826 44.586 M85.398 44.391 C 85.310 44.479,84.887 44.558,84.459 44.567 C 83.519 44.586,80.121 45.402,79.467 45.765 C 79.211 45.908,78.953 46.041,78.894 46.060 C 78.836 46.080,78.573 46.167,78.309 46.252 C 78.046 46.338,77.831 46.492,77.831 46.596 C 77.831 46.699,77.682 46.784,77.499 46.784 C 77.317 46.784,77.227 46.879,77.299 46.996 C 77.372 47.113,77.241 47.209,77.008 47.209 C 76.776 47.209,76.442 47.352,76.266 47.528 C 76.091 47.703,75.851 47.847,75.734 47.847 C 75.617 47.847,75.461 48.033,75.389 48.261 C 75.317 48.489,75.071 48.735,74.843 48.807 C 74.615 48.880,74.428 49.076,74.428 49.243 C 74.428 49.411,74.322 49.524,74.191 49.495 C 74.061 49.466,73.764 49.777,73.533 50.186 C 73.301 50.595,72.942 51.122,72.733 51.356 C 72.374 51.759,71.859 53.052,71.896 53.458 C 71.905 53.562,71.814 53.709,71.692 53.784 C 71.571 53.859,71.349 54.563,71.200 55.349 C 71.051 56.135,70.851 56.778,70.756 56.778 C 70.661 56.778,70.586 57.137,70.589 57.576 C 70.598 58.937,70.452 61.320,70.319 61.988 C 70.209 62.538,69.912 66.181,69.653 70.175 C 69.417 73.793,69.248 75.411,69.083 75.621 C 68.980 75.751,68.930 76.401,68.970 77.066 C 69.009 77.731,68.970 78.319,68.882 78.373 C 68.794 78.428,68.730 78.982,68.739 79.605 C 68.748 80.228,68.704 80.826,68.641 80.933 C 68.578 81.040,68.506 81.653,68.480 82.297 C 68.416 83.912,68.342 84.952,68.184 86.443 C 68.110 87.145,67.996 88.581,67.931 89.633 C 67.866 90.686,67.775 91.930,67.729 92.398 C 67.683 92.865,67.584 94.155,67.509 95.264 C 67.435 96.373,67.297 97.425,67.203 97.603 C 67.109 97.781,67.052 98.520,67.077 99.244 C 67.101 99.969,67.043 100.514,66.947 100.455 C 66.851 100.395,66.774 100.664,66.776 101.051 C 66.779 101.583,66.830 101.677,66.986 101.435 C 67.099 101.260,67.193 101.217,67.195 101.340 C 67.197 101.463,67.105 101.657,66.990 101.771 C 66.876 101.886,66.738 102.551,66.685 103.249 C 66.632 103.947,66.490 105.667,66.371 107.071 C 66.251 108.474,66.090 110.579,66.013 111.749 C 65.935 112.919,65.839 114.055,65.798 114.274 C 65.757 114.494,65.659 115.762,65.579 117.092 C 65.500 118.422,65.355 119.511,65.257 119.511 C 65.160 119.511,65.071 120.061,65.060 120.734 C 65.049 121.406,65.026 122.435,65.011 123.020 C 64.977 124.289,65.151 125.828,65.353 126.030 C 65.432 126.109,65.497 126.387,65.497 126.648 C 65.497 128.582,68.245 133.469,69.165 133.172 C 69.253 133.144,69.325 133.264,69.325 133.440 C 69.325 133.615,69.425 133.759,69.547 133.759 C 69.669 133.759,70.009 133.998,70.301 134.290 C 70.593 134.583,70.973 134.822,71.145 134.822 C 71.317 134.822,71.623 134.915,71.826 135.028 C 72.525 135.417,74.232 135.885,74.955 135.885 C 75.353 135.885,75.738 135.981,75.811 136.098 C 75.883 136.215,76.086 136.310,76.261 136.310 C 76.439 136.310,76.516 136.207,76.436 136.077 C 76.331 135.908,76.413 135.908,76.730 136.078 C 77.314 136.390,142.903 136.407,142.903 136.095 C 142.903 135.980,143.250 135.885,143.675 135.885 C 144.600 135.885,147.794 135.040,147.794 134.795 C 147.794 134.700,147.953 134.684,148.148 134.758 C 148.405 134.857,148.454 134.817,148.327 134.613 C 148.211 134.425,148.235 134.382,148.400 134.484 C 148.536 134.567,148.958 134.415,149.337 134.145 C 149.716 133.874,150.098 133.641,150.186 133.626 C 150.274 133.611,150.430 133.587,150.534 133.573 C 150.638 133.558,151.275 133.020,151.950 132.376 C 152.625 131.733,153.247 131.207,153.332 131.207 C 153.417 131.207,153.640 130.885,153.826 130.492 C 154.013 130.099,154.311 129.656,154.488 129.509 C 154.666 129.361,154.811 129.116,154.811 128.963 C 154.811 128.810,154.961 128.536,155.144 128.353 C 155.327 128.170,155.408 127.909,155.324 127.773 C 155.233 127.626,155.263 127.583,155.399 127.667 C 155.592 127.786,155.901 127.001,155.909 126.372 C 155.910 126.283,155.998 126.105,156.104 125.977 C 156.210 125.849,156.403 124.749,156.534 123.532 C 156.664 122.314,156.828 121.175,156.898 120.999 C 156.968 120.824,157.042 120.154,157.061 119.511 C 157.081 118.868,157.169 118.167,157.258 117.955 C 157.351 117.733,157.317 117.466,157.179 117.328 C 157.046 117.195,156.939 116.986,156.941 116.863 C 156.943 116.741,157.038 116.784,157.153 116.959 C 157.310 117.200,157.361 117.095,157.360 116.534 C 157.358 114.912,157.511 112.983,157.661 112.740 C 157.748 112.599,157.800 112.031,157.776 111.478 C 157.752 110.926,157.788 110.234,157.855 109.942 C 157.923 109.649,158.036 108.388,158.108 107.139 C 158.179 105.890,158.326 104.024,158.434 102.992 C 158.543 101.961,158.633 100.614,158.635 100.000 C 158.637 99.386,158.726 98.884,158.832 98.884 C 158.938 98.884,159.014 98.333,159.000 97.659 C 158.987 96.986,159.032 96.340,159.101 96.224 C 159.170 96.108,159.241 95.534,159.257 94.949 C 159.287 93.893,159.416 92.112,159.580 90.484 C 159.628 90.016,159.867 87.002,160.113 83.785 C 160.358 80.569,160.609 77.698,160.670 77.406 C 160.920 76.207,160.954 75.848,161.316 70.494 C 161.372 69.676,161.553 67.570,161.719 65.816 C 162.558 56.973,162.242 51.870,160.766 50.399 C 160.707 50.340,160.475 49.957,160.250 49.548 C 159.801 48.732,157.608 46.358,157.302 46.358 C 157.197 46.358,156.882 46.178,156.601 45.957 C 156.321 45.737,155.444 45.393,154.654 45.195 C 153.863 44.996,153.073 44.760,152.897 44.671 C 152.722 44.582,152.078 44.536,151.467 44.570 C 150.855 44.604,150.299 44.542,150.231 44.432 C 150.083 44.192,85.637 44.152,85.398 44.391 M192.876 44.432 C 192.876 44.542,192.374 44.598,191.761 44.556 C 191.148 44.513,190.550 44.554,190.432 44.646 C 190.226 44.807,189.659 44.957,188.304 45.209 C 187.953 45.275,187.349 45.512,186.962 45.737 C 186.575 45.962,186.322 46.043,186.401 45.916 C 186.479 45.789,186.270 45.838,185.935 46.024 C 184.853 46.628,184.468 46.890,183.642 47.581 C 183.468 47.727,183.248 47.847,183.155 47.847 C 182.779 47.847,180.720 50.170,180.874 50.419 C 180.974 50.581,180.944 50.622,180.794 50.529 C 180.649 50.440,180.501 50.594,180.419 50.920 C 180.345 51.217,180.206 51.411,180.111 51.352 C 180.016 51.293,179.828 51.581,179.692 51.992 C 179.557 52.402,179.376 52.738,179.290 52.738 C 179.090 52.738,178.326 55.267,178.365 55.802 C 178.381 56.025,178.313 56.360,178.214 56.546 C 178.115 56.732,177.922 58.511,177.785 60.500 C 177.648 62.488,177.477 64.258,177.404 64.434 C 177.331 64.609,177.238 65.231,177.198 65.816 C 177.113 67.068,176.921 69.590,176.787 71.239 C 176.735 71.882,176.489 74.944,176.241 78.044 C 175.993 81.143,175.728 83.727,175.654 83.785 C 175.579 83.844,175.512 84.432,175.504 85.092 C 175.497 85.753,175.427 86.397,175.349 86.523 C 175.270 86.650,175.306 86.941,175.429 87.169 C 175.708 87.691,175.716 88.042,175.439 87.613 C 175.288 87.380,175.227 87.551,175.213 88.251 C 175.202 88.777,175.155 89.399,175.107 89.633 C 175.060 89.867,174.962 91.063,174.890 92.291 C 174.819 93.519,174.526 97.060,174.239 100.159 C 173.953 103.259,173.696 106.369,173.669 107.071 C 173.642 107.772,173.543 108.470,173.448 108.622 C 173.350 108.778,173.386 109.031,173.532 109.207 C 173.732 109.447,173.733 109.584,173.534 109.824 C 173.394 109.993,173.242 110.962,173.196 111.977 C 173.150 112.992,173.067 114.170,173.012 114.593 C 172.117 121.484,172.214 126.833,173.271 128.776 C 173.394 129.002,173.708 129.665,173.969 130.250 C 174.231 130.835,174.596 131.476,174.782 131.676 C 174.968 131.875,175.351 132.325,175.633 132.676 C 175.916 133.028,176.227 133.266,176.324 133.205 C 176.422 133.145,176.502 133.245,176.502 133.427 C 176.502 133.609,176.627 133.759,176.781 133.759 C 176.934 133.759,177.254 133.940,177.492 134.161 C 178.073 134.702,179.153 135.247,179.646 135.247 C 179.866 135.247,180.118 135.319,180.206 135.407 C 180.293 135.494,180.429 135.573,180.507 135.582 C 181.366 135.678,182.842 135.944,183.094 136.048 C 183.270 136.121,183.509 136.198,183.626 136.221 C 183.743 136.243,193.824 136.272,206.029 136.286 L 228.219 136.310 228.080 137.321 C 227.932 138.388,227.788 139.893,227.644 141.860 C 227.463 144.326,226.512 145.957,224.916 146.534 C 224.500 146.684,224.192 146.862,224.234 146.929 C 224.275 146.995,217.451 147.022,209.071 146.988 C 200.690 146.954,193.631 146.976,193.385 147.037 C 192.971 147.140,192.925 147.345,192.784 149.754 C 192.701 151.188,192.552 152.457,192.454 152.576 C 192.355 152.694,192.291 153.341,192.310 154.014 C 192.329 154.686,192.273 155.237,192.185 155.237 C 191.935 155.237,191.998 155.975,192.272 156.248 C 192.458 156.435,192.453 156.573,192.249 156.819 C 192.003 157.115,191.884 158.245,191.702 162.005 C 191.667 162.745,191.581 163.407,191.512 163.476 C 190.960 164.028,191.664 168.846,192.297 168.846 C 192.420 168.846,192.463 168.905,192.392 168.976 C 192.100 169.268,193.542 170.142,194.652 170.347 C 195.960 170.589,235.700 170.518,236.789 170.272 C 237.140 170.193,237.618 170.086,237.852 170.035 C 238.086 169.984,238.301 169.923,238.331 169.899 C 238.360 169.876,238.472 169.844,238.579 169.830 C 238.686 169.815,238.845 169.732,238.933 169.644 C 239.021 169.556,239.214 169.484,239.362 169.484 C 239.511 169.484,239.901 169.374,240.231 169.239 C 240.560 169.104,240.947 168.969,241.092 168.939 C 241.615 168.831,242.637 168.313,242.637 168.156 C 242.637 168.068,242.770 167.996,242.933 167.996 C 243.096 167.996,243.284 167.852,243.352 167.677 C 243.419 167.501,243.610 167.358,243.775 167.358 C 243.941 167.358,244.237 167.113,244.434 166.813 C 244.630 166.513,244.901 166.305,245.035 166.350 C 245.294 166.436,246.252 165.424,246.252 165.064 C 246.252 164.947,246.391 164.798,246.562 164.733 C 246.865 164.616,247.951 163.054,248.051 162.593 C 248.078 162.465,248.211 162.091,248.346 161.762 C 248.481 161.433,248.591 160.990,248.591 160.778 C 248.591 160.566,248.743 160.266,248.928 160.113 C 249.139 159.937,249.233 159.610,249.178 159.236 C 249.130 158.908,249.155 158.639,249.235 158.639 C 249.399 158.639,249.731 155.496,250.114 150.292 C 250.258 148.333,250.458 146.730,250.558 146.730 C 250.659 146.730,250.702 146.201,250.654 145.554 C 250.607 144.907,250.639 144.334,250.726 144.280 C 250.813 144.226,250.905 143.536,250.930 142.745 C 251.033 139.566,251.084 138.850,251.217 138.718 C 251.293 138.641,251.356 137.919,251.356 137.113 C 251.356 136.307,251.438 135.698,251.538 135.760 C 251.815 135.931,254.391 135.237,254.798 134.881 C 254.995 134.709,255.258 134.630,255.383 134.707 C 255.507 134.784,255.609 134.740,255.609 134.609 C 255.609 134.478,255.693 134.424,255.796 134.487 C 255.899 134.551,256.320 134.375,256.731 134.096 C 257.142 133.817,257.680 133.525,257.926 133.447 C 258.172 133.369,258.373 133.162,258.373 132.987 C 258.373 132.813,258.463 132.726,258.574 132.794 C 258.684 132.862,259.271 132.437,259.877 131.850 C 260.484 131.262,260.921 130.781,260.848 130.781 C 260.724 130.781,261.145 130.212,261.712 129.613 C 261.853 129.465,261.909 129.284,261.836 129.212 C 261.764 129.140,261.832 129.080,261.988 129.080 C 262.144 129.080,262.208 129.016,262.130 128.938 C 262.051 128.860,262.123 128.645,262.288 128.460 C 262.744 127.950,263.549 125.663,263.550 124.874 C 263.550 124.436,263.615 124.278,263.723 124.449 C 263.894 124.718,263.920 124.526,264.020 122.275 C 264.043 121.749,264.119 121.079,264.189 120.787 C 264.260 120.494,264.360 119.490,264.413 118.554 C 264.687 113.685,265.243 107.440,265.439 107.030 C 265.567 106.762,265.602 106.116,265.521 105.504 C 265.441 104.905,265.467 104.390,265.580 104.320 C 265.690 104.252,265.777 103.695,265.774 103.082 C 265.770 102.469,265.822 101.823,265.889 101.648 C 265.956 101.473,265.991 100.779,265.966 100.106 C 265.942 99.433,265.998 98.883,266.090 98.883 C 266.183 98.883,266.243 98.525,266.225 98.086 C 266.206 97.648,266.251 96.667,266.325 95.906 C 266.398 95.146,266.508 93.806,266.568 92.929 C 266.628 92.052,266.715 90.952,266.760 90.484 C 266.806 90.016,266.911 88.676,266.995 87.507 C 267.078 86.337,267.238 85.265,267.349 85.125 C 267.461 84.985,267.529 84.554,267.502 84.168 C 267.474 83.782,267.518 82.940,267.598 82.297 C 267.678 81.653,267.781 80.457,267.826 79.638 C 267.872 78.820,267.964 77.528,268.031 76.768 C 268.097 76.007,268.205 74.716,268.270 73.897 C 268.334 73.078,268.477 71.308,268.588 69.963 C 268.698 68.618,268.852 66.536,268.929 65.338 C 269.007 64.139,269.155 63.158,269.257 63.158 C 269.452 63.158,269.471 62.671,269.472 57.735 C 269.473 54.669,269.419 53.849,269.189 53.482 C 269.116 53.365,268.984 52.935,268.896 52.525 C 268.716 51.686,267.920 49.904,267.677 49.796 C 267.589 49.757,267.517 49.590,267.517 49.424 C 267.517 49.258,267.437 49.123,267.339 49.123 C 267.241 49.123,267.049 48.878,266.913 48.579 C 266.765 48.254,266.566 48.096,266.420 48.187 C 266.279 48.274,266.233 48.245,266.312 48.116 C 266.388 47.995,266.307 47.777,266.133 47.632 C 265.959 47.488,265.816 47.413,265.816 47.465 C 265.816 47.518,265.407 47.171,264.906 46.694 C 264.046 45.874,262.596 45.225,261.103 44.993 C 260.792 44.944,260.349 44.804,260.120 44.681 C 259.886 44.556,259.237 44.513,258.641 44.584 C 257.957 44.665,257.528 44.625,257.432 44.471 C 257.243 44.163,192.876 44.125,192.876 44.432 M299.971 44.406 C 299.912 44.501,299.451 44.559,298.948 44.533 C 298.445 44.508,297.929 44.572,297.801 44.676 C 297.674 44.780,297.176 44.914,296.696 44.975 C 296.215 45.035,295.554 45.196,295.226 45.332 C 294.899 45.467,294.559 45.598,294.471 45.623 C 294.383 45.647,294.288 45.686,294.258 45.710 C 294.229 45.734,294.016 45.788,293.784 45.831 C 293.552 45.875,293.328 46.011,293.287 46.135 C 293.246 46.259,293.124 46.307,293.017 46.241 C 292.910 46.175,292.823 46.238,292.823 46.381 C 292.823 46.525,292.767 46.586,292.698 46.517 C 292.500 46.319,290.584 47.551,290.649 47.835 C 290.681 47.976,290.612 48.032,290.495 47.960 C 290.265 47.818,288.145 49.838,288.145 50.199 C 288.145 50.320,287.891 50.654,287.582 50.941 C 287.272 51.227,287.105 51.463,287.210 51.465 C 287.315 51.467,287.305 51.539,287.188 51.625 C 286.954 51.796,286.231 53.276,286.231 53.582 C 286.231 53.687,286.120 54.043,285.984 54.372 C 285.848 54.701,285.757 55.058,285.782 55.164 C 285.807 55.270,285.737 55.414,285.627 55.483 C 285.516 55.552,285.364 56.231,285.290 56.991 C 285.215 57.751,285.109 58.804,285.055 59.330 C 285.001 59.856,284.916 60.909,284.865 61.669 C 284.557 66.268,284.071 72.060,283.955 72.515 C 283.881 72.807,283.799 73.333,283.773 73.684 C 283.747 74.035,283.616 75.566,283.482 77.087 C 283.221 80.036,282.873 84.533,282.865 85.061 C 282.843 86.581,282.326 91.630,282.162 91.936 C 282.016 92.208,282.036 92.427,282.231 92.668 C 282.462 92.953,282.460 92.981,282.221 92.837 C 281.989 92.698,281.957 92.842,282.060 93.574 C 282.130 94.075,282.103 94.589,282.000 94.717 C 281.842 94.914,281.661 96.890,281.433 100.904 C 281.406 101.372,281.233 103.525,281.047 105.688 C 280.862 107.852,280.647 110.579,280.569 111.749 C 280.491 112.919,280.353 113.925,280.261 113.985 C 280.170 114.045,280.114 114.651,280.137 115.332 C 280.160 116.012,280.105 116.615,280.015 116.670 C 279.925 116.726,279.851 116.963,279.851 117.197 C 279.851 117.431,279.931 117.573,280.028 117.513 C 280.126 117.452,280.206 117.538,280.206 117.703 C 280.206 117.868,280.134 117.960,280.048 117.906 C 279.682 117.680,279.426 123.482,279.714 125.465 C 279.807 126.108,279.897 126.802,279.913 127.007 C 279.929 127.212,280.023 127.379,280.122 127.379 C 280.221 127.379,280.240 127.479,280.164 127.601 C 280.089 127.723,280.151 127.972,280.301 128.153 C 280.452 128.335,280.601 128.650,280.632 128.853 C 280.722 129.443,281.621 131.270,282.084 131.805 C 282.891 132.736,283.975 133.759,284.155 133.759 C 284.255 133.759,284.566 133.989,284.847 134.269 C 285.498 134.920,287.440 135.598,289.314 135.828 C 289.782 135.886,290.284 136.030,290.431 136.148 C 290.614 136.296,290.808 136.272,291.056 136.071 C 291.301 135.872,291.365 135.864,291.256 136.045 C 291.063 136.367,357.244 136.442,357.586 136.120 C 357.698 136.016,358.219 135.880,358.745 135.819 C 360.084 135.663,360.872 135.445,360.872 135.231 C 360.872 135.130,361.007 135.100,361.172 135.163 C 361.337 135.226,361.762 135.128,362.118 134.944 C 362.474 134.760,362.961 134.609,363.200 134.609 C 363.440 134.609,363.636 134.512,363.636 134.392 C 363.636 134.273,363.900 134.061,364.221 133.921 C 365.884 133.199,368.110 131.093,369.114 129.293 C 369.538 128.533,369.986 127.840,370.110 127.754 C 370.234 127.669,370.260 127.597,370.168 127.595 C 370.076 127.593,370.108 127.392,370.239 127.148 C 370.489 126.680,370.693 125.857,370.735 125.146 C 370.749 124.912,370.823 124.673,370.899 124.615 C 371.057 124.494,371.418 120.971,371.629 117.491 C 371.708 116.204,371.844 115.056,371.933 114.939 C 372.022 114.822,372.068 114.296,372.034 113.769 C 372.000 113.243,372.061 112.704,372.169 112.572 C 372.288 112.426,372.286 112.126,372.163 111.802 C 372.038 111.474,372.037 111.196,372.159 111.073 C 372.268 110.964,372.408 110.115,372.471 109.186 C 372.533 108.256,372.637 107.324,372.700 107.114 C 372.764 106.903,372.688 106.574,372.532 106.382 C 372.296 106.090,372.296 106.061,372.533 106.203 C 372.751 106.334,372.805 106.207,372.767 105.659 C 372.740 105.266,372.777 104.609,372.849 104.200 C 372.922 103.791,373.023 102.786,373.074 101.967 C 373.359 97.390,373.686 93.835,373.856 93.461 C 373.962 93.227,374.048 92.557,374.048 91.972 C 374.048 90.909,374.112 90.023,374.346 87.826 C 374.415 87.182,374.522 85.938,374.585 85.061 C 374.648 84.184,374.837 81.792,375.004 79.745 C 375.172 77.698,375.372 75.019,375.449 73.791 C 375.526 72.562,375.666 71.509,375.761 71.450 C 375.857 71.391,375.915 70.692,375.892 69.898 C 375.868 69.104,375.900 68.403,375.963 68.340 C 376.025 68.278,376.092 67.971,376.111 67.659 C 376.130 67.347,376.270 65.704,376.423 64.009 C 376.883 58.918,376.750 52.755,376.177 52.560 C 376.062 52.521,376.028 52.391,376.102 52.271 C 376.177 52.151,376.153 51.991,376.051 51.917 C 375.948 51.842,375.577 51.164,375.226 50.411 C 374.346 48.520,371.613 45.709,371.015 46.079 C 370.895 46.153,370.866 46.105,370.949 45.972 C 371.040 45.824,370.869 45.683,370.503 45.604 C 370.177 45.533,369.718 45.391,369.484 45.289 C 368.567 44.889,366.467 44.491,365.724 44.575 C 365.294 44.624,364.881 44.567,364.808 44.448 C 364.645 44.184,300.134 44.142,299.971 44.406 M138.218 68.274 C 138.088 68.516,138.033 69.218,138.092 69.867 C 138.150 70.504,138.120 71.026,138.025 71.026 C 137.930 71.026,137.852 71.264,137.852 71.554 C 137.852 71.888,137.940 72.029,138.091 71.938 C 138.246 71.846,138.240 71.908,138.075 72.111 C 137.934 72.285,137.823 72.615,137.829 72.843 C 137.834 73.072,137.789 73.465,137.729 73.718 C 137.668 73.970,137.558 75.256,137.483 76.576 C 137.409 77.896,137.317 79.029,137.279 79.094 C 137.241 79.160,137.144 80.407,137.063 81.865 C 136.982 83.324,136.886 84.568,136.849 84.630 C 136.812 84.691,136.714 85.938,136.629 87.400 C 136.545 88.862,136.415 90.154,136.340 90.271 C 136.265 90.388,136.182 90.962,136.155 91.547 C 136.127 92.132,136.058 93.089,136.001 93.674 C 135.944 94.258,135.856 95.473,135.805 96.372 C 135.755 97.272,135.654 98.103,135.582 98.220 C 135.510 98.336,135.466 98.701,135.485 99.030 C 135.515 99.572,135.424 100.872,135.143 103.881 C 135.089 104.466,134.991 105.710,134.925 106.645 C 134.783 108.676,134.632 109.533,134.354 109.879 C 134.240 110.020,134.218 110.250,134.305 110.390 C 134.412 110.563,134.372 110.589,134.181 110.471 C 133.970 110.341,133.938 110.397,134.053 110.698 C 134.137 110.918,134.143 111.035,134.066 110.957 C 133.988 110.880,133.672 111.087,133.363 111.417 C 131.967 112.912,133.657 112.806,110.179 112.871 L 89.045 112.930 89.171 111.914 C 89.241 111.356,89.362 109.942,89.440 108.772 C 89.518 107.602,89.655 106.550,89.745 106.433 C 89.835 106.316,89.904 105.885,89.898 105.476 C 89.892 105.066,89.946 104.205,90.017 103.562 C 90.089 102.919,90.204 101.579,90.274 100.585 C 90.343 99.591,90.438 98.347,90.485 97.820 C 90.532 97.294,90.633 95.954,90.710 94.843 C 90.786 93.732,90.876 92.679,90.909 92.504 C 90.942 92.329,91.092 90.439,91.243 88.304 C 91.393 86.170,91.588 84.423,91.675 84.423 C 91.763 84.423,91.836 83.921,91.838 83.307 C 91.840 82.693,91.893 81.760,91.956 81.233 C 92.019 80.707,92.120 79.367,92.181 78.256 C 92.242 77.145,92.334 75.901,92.385 75.492 C 92.437 75.082,92.544 74.030,92.623 73.153 C 92.812 71.047,92.855 70.853,93.263 70.229 C 93.467 69.918,93.500 69.766,93.344 69.863 C 93.170 69.970,93.129 69.942,93.228 69.783 C 93.311 69.648,93.511 69.537,93.672 69.537 C 93.832 69.537,94.021 69.358,94.091 69.138 C 94.161 68.918,94.658 68.511,95.197 68.234 L 96.176 67.730 117.313 67.785 L 138.450 67.840 138.218 68.274 M245.491 68.423 C 245.468 68.744,245.334 70.421,245.193 72.151 C 245.052 73.881,244.990 75.433,245.054 75.601 C 245.118 75.768,245.041 76.034,244.883 76.193 C 244.689 76.387,244.612 76.911,244.648 77.794 C 244.678 78.516,244.612 79.107,244.503 79.107 C 244.391 79.107,244.334 79.754,244.374 80.576 C 244.413 81.384,244.374 82.001,244.288 81.948 C 244.203 81.894,244.147 82.214,244.166 82.658 C 244.184 83.103,244.126 84.184,244.037 85.061 C 243.844 86.953,243.841 86.990,243.360 93.248 C 243.153 95.938,242.921 98.187,242.843 98.246 C 242.708 98.347,242.663 99.036,242.572 102.425 C 242.549 103.261,242.451 103.897,242.354 103.837 C 242.257 103.777,242.203 103.906,242.235 104.123 C 242.281 104.442,241.994 108.691,241.900 109.091 C 241.689 109.979,241.221 110.871,240.785 111.214 C 240.486 111.450,240.322 111.643,240.423 111.643 C 240.523 111.643,240.385 111.797,240.116 111.985 C 238.812 112.899,238.444 112.913,216.959 112.916 C 195.995 112.919,196.297 112.930,196.497 112.174 C 196.528 112.057,196.600 111.340,196.656 110.579 C 196.775 108.969,196.864 107.816,197.020 105.901 C 197.082 105.141,197.187 103.753,197.253 102.818 C 197.320 101.882,197.455 100.255,197.553 99.203 C 197.651 98.150,197.793 96.239,197.869 94.955 C 197.944 93.672,198.088 92.523,198.188 92.403 C 198.288 92.282,198.354 91.576,198.335 90.835 C 198.315 90.093,198.377 89.438,198.473 89.379 C 198.569 89.319,198.623 88.870,198.592 88.380 C 198.562 87.890,198.593 87.398,198.660 87.285 C 198.727 87.173,198.784 86.555,198.786 85.912 C 198.788 85.268,198.840 84.599,198.901 84.423 C 198.963 84.248,199.065 82.974,199.129 81.594 C 199.193 80.213,199.284 79.017,199.331 78.935 C 199.378 78.854,199.484 77.592,199.566 76.130 C 199.648 74.668,199.803 73.381,199.911 73.270 C 200.199 72.971,200.148 72.677,199.841 72.862 C 199.659 72.971,199.667 72.908,199.866 72.663 C 200.025 72.466,200.111 72.068,200.056 71.778 C 199.993 71.451,200.038 71.303,200.173 71.386 C 200.302 71.466,200.340 71.387,200.265 71.193 C 200.196 71.013,200.247 70.758,200.378 70.627 C 200.509 70.495,200.543 70.388,200.452 70.388 C 200.362 70.388,200.578 70.037,200.932 69.607 C 201.285 69.178,201.516 68.731,201.444 68.614 C 201.367 68.490,201.453 68.456,201.653 68.532 C 201.840 68.604,202.023 68.597,202.060 68.515 C 202.401 67.762,203.433 67.729,224.732 67.785 L 245.532 67.840 245.491 68.423 M352.647 68.740 C 352.627 69.237,352.462 71.414,352.281 73.578 C 351.885 78.302,351.764 79.887,351.607 82.389 C 351.542 83.434,351.410 84.438,351.314 84.622 C 351.219 84.805,351.158 85.463,351.179 86.085 C 351.201 86.706,351.150 87.257,351.066 87.309 C 350.982 87.360,350.930 88.024,350.949 88.784 C 350.968 89.544,350.908 90.165,350.815 90.165 C 350.722 90.165,350.668 90.284,350.694 90.431 C 350.721 90.577,350.672 91.606,350.586 92.717 C 350.500 93.828,350.389 95.359,350.339 96.119 C 350.289 96.879,350.197 97.980,350.135 98.565 C 350.012 99.722,349.887 101.337,349.692 104.306 C 349.622 105.359,349.509 106.364,349.439 106.539 C 349.280 106.938,349.219 107.413,349.144 108.825 C 349.111 109.439,349.016 109.942,348.932 109.942 C 348.848 109.942,348.717 110.138,348.641 110.378 C 348.316 111.400,346.473 112.706,345.355 112.706 C 345.117 112.706,344.923 112.778,344.923 112.865 C 344.923 112.953,335.628 113.000,324.268 112.970 L 303.614 112.914 303.745 111.694 C 303.882 110.412,304.210 106.272,304.430 103.030 C 304.501 101.978,304.636 101.021,304.729 100.904 C 304.822 100.787,304.899 100.165,304.900 99.522 C 304.901 98.878,304.955 98.133,305.019 97.866 C 305.168 97.245,305.462 92.805,305.470 91.069 C 305.473 90.338,305.548 89.740,305.635 89.740 C 305.723 89.740,305.778 89.668,305.757 89.580 C 305.722 89.434,306.055 84.455,306.116 84.211 C 306.131 84.152,306.219 82.956,306.312 81.552 C 306.406 80.149,306.558 78.905,306.649 78.788 C 306.741 78.671,306.833 78.097,306.853 77.512 C 307.070 71.157,307.937 68.591,310.022 68.134 C 310.328 68.067,310.675 67.980,310.792 67.941 C 310.909 67.902,320.383 67.862,331.845 67.853 L 352.685 67.836 352.647 68.740 " stroke="none" fill="#e41c34" fill-rule="evenodd"></path><path id="path1" d="" stroke="none" fill="#e41c3c" fill-rule="evenodd"></path><path id="path2" d="M257.501 44.508 C 257.600 44.607,258.004 44.655,258.399 44.614 C 259.100 44.542,259.095 44.538,258.219 44.434 C 257.725 44.376,257.402 44.409,257.501 44.508 M68.560 133.068 C 69.003 133.590,69.325 133.687,69.325 133.298 C 69.325 133.161,69.261 133.114,69.183 133.192 C 69.104 133.270,68.841 133.167,68.598 132.962 C 68.156 132.589,68.156 132.589,68.560 133.068 M248.746 160.256 C 248.661 160.341,248.597 160.658,248.605 160.960 L 248.618 161.510 248.823 160.996 C 249.045 160.443,248.999 160.004,248.746 160.256 M78.579 168.593 C 78.407 169.043,78.521 169.057,78.947 168.642 C 79.244 168.353,79.256 168.279,79.010 168.279 C 78.839 168.279,78.646 168.421,78.579 168.593 " stroke="none" fill="#e81c34" fill-rule="evenodd"></path><path id="path3" d="M257.501 44.508 C 257.600 44.607,258.004 44.655,258.399 44.614 C 259.100 44.542,259.095 44.538,258.219 44.434 C 257.725 44.376,257.402 44.409,257.501 44.508 M68.560 133.068 C 69.003 133.590,69.325 133.687,69.325 133.298 C 69.325 133.161,69.261 133.114,69.183 133.192 C 69.104 133.270,68.841 133.167,68.598 132.962 C 68.156 132.589,68.156 132.589,68.560 133.068 M248.746 160.256 C 248.661 160.341,248.597 160.658,248.605 160.960 L 248.618 161.510 248.823 160.996 C 249.045 160.443,248.999 160.004,248.746 160.256 M78.579 168.593 C 78.407 169.043,78.521 169.057,78.947 168.642 C 79.244 168.353,79.256 168.279,79.010 168.279 C 78.839 168.279,78.646 168.421,78.579 168.593 " stroke="none" fill="#e81c34" fill-rule="evenodd"></path><path id="path4" d="M257.501 44.508 C 257.600 44.607,258.004 44.655,258.399 44.614 C 259.100 44.542,259.095 44.538,258.219 44.434 C 257.725 44.376,257.402 44.409,257.501 44.508 M68.560 133.068 C 69.003 133.590,69.325 133.687,69.325 133.298 C 69.325 133.161,69.261 133.114,69.183 133.192 C 69.104 133.270,68.841 133.167,68.598 132.962 C 68.156 132.589,68.156 132.589,68.560 133.068 M248.746 160.256 C 248.661 160.341,248.597 160.658,248.605 160.960 L 248.618 161.510 248.823 160.996 C 249.045 160.443,248.999 160.004,248.746 160.256 M78.579 168.593 C 78.407 169.043,78.521 169.057,78.947 168.642 C 79.244 168.353,79.256 168.279,79.010 168.279 C 78.839 168.279,78.646 168.421,78.579 168.593 " stroke="none" fill="#e81c34" fill-rule="evenodd"></path></g></svg>